<?xml version="1.0" standalone="yes"?>
<!-- SVG graphic -->
<svg xmlns='http://www.w3.org/2000/svg' xmlns:xlink='http://www.w3.org/1999/xlink'
 version="1.1">
<rect x="0" y="0.578033" width="6" height="199.422" stroke="black" stroke-width="1" fill="blue" tooltip="enable"><title>(0,1035)</title></rect><rect x="6" y="1.7341" width="6" height="198.266" stroke="black" stroke-width="1" fill="blue" tooltip="enable"><title>(0.0396556,1029)</title></rect><rect x="12" y="6.74374" width="6" height="193.256" stroke="black" stroke-width="1" fill="blue" tooltip="enable"><title>(0.0793112,1003)</title></rect><rect x="18" y="0" width="6" height="200" stroke="black" stroke-width="1" fill="blue" tooltip="enable"><title>(0.118967,1038)</title></rect><rect x="24" y="21.58" width="6" height="178.42" stroke="black" stroke-width="1" fill="blue" tooltip="enable"><title>(0.158622,926)</title></rect><rect x="30" y="14.0655" width="6" height="185.934" stroke="black" stroke-width="1" fill="blue" tooltip="enable"><title>(0.198278,965)</title></rect><rect x="36" y="23.5067" width="6" height="176.493" stroke="black" stroke-width="1" fill="blue" tooltip="enable"><title>(0.237934,916)</title></rect><rect x="42" y="32.7553" width="6" height="167.245" stroke="black" stroke-width="1" fill="blue" tooltip="enable"><title>(0.277589,868)</title></rect><rect x="48" y="35.0674" width="6" height="164.933" stroke="black" stroke-width="1" fill="blue" tooltip="enable"><title>(0.317245,856)</title></rect><rect x="54" y="45.6647" width="6" height="154.335" stroke="black" stroke-width="1" fill="blue" tooltip="enable"><title>(0.3569,801)</title></rect><rect x="60" y="49.9037" width="6" height="150.096" stroke="black" stroke-width="1" fill="blue" tooltip="enable"><title>(0.396556,779)</title></rect><rect x="66" y="60.3083" width="6" height="139.692" stroke="black" stroke-width="1" fill="blue" tooltip="enable"><title>(0.436212,725)</title></rect><rect x="72" y="63.5838" width="6" height="136.416" stroke="black" stroke-width="1" fill="blue" tooltip="enable"><title>(0.475867,708)</title></rect><rect x="78" y="65.896" width="6" height="134.104" stroke="black" stroke-width="1" fill="blue" tooltip="enable"><title>(0.515523,696)</title></rect><rect x="84" y="67.4374" width="6" height="132.563" stroke="black" stroke-width="1" fill="blue" tooltip="enable"><title>(0.555178,688)</title></rect><rect x="90" y="81.1175" width="6" height="118.882" stroke="black" stroke-width="1" fill="blue" tooltip="enable"><title>(0.594834,617)</title></rect><rect x="96" y="77.264" width="6" height="122.736" stroke="black" stroke-width="1" fill="blue" tooltip="enable"><title>(0.634489,637)</title></rect><rect x="102" y="79.7688" width="6" height="120.231" stroke="black" stroke-width="1" fill="blue" tooltip="enable"><title>(0.674145,624)</title></rect><rect x="108" y="83.815" width="6" height="116.185" stroke="black" stroke-width="1" fill="blue" tooltip="enable"><title>(0.713801,603)</title></rect><rect x="114" y="94.605" width="6" height="105.395" stroke="black" stroke-width="1" fill="blue" tooltip="enable"><title>(0.753456,547)</title></rect><rect x="120" y="96.7245" width="6" height="103.276" stroke="black" stroke-width="1" fill="blue" tooltip="enable"><title>(0.793112,536)</title></rect><rect x="126" y="97.1098" width="6" height="102.89" stroke="black" stroke-width="1" fill="blue" tooltip="enable"><title>(0.832767,534)</title></rect><rect x="132" y="107.322" width="6" height="92.6782" stroke="black" stroke-width="1" fill="blue" tooltip="enable"><title>(0.872423,481)</title></rect><rect x="138" y="123.121" width="6" height="76.8786" stroke="black" stroke-width="1" fill="blue" tooltip="enable"><title>(0.912079,399)</title></rect><rect x="144" y="115.029" width="6" height="84.9711" stroke="black" stroke-width="1" fill="blue" tooltip="enable"><title>(0.951734,441)</title></rect><rect x="150" y="121.58" width="6" height="78.42" stroke="black" stroke-width="1" fill="blue" tooltip="enable"><title>(0.99139,407)</title></rect><rect x="156" y="124.277" width="6" height="75.7225" stroke="black" stroke-width="1" fill="blue" tooltip="enable"><title>(1.03105,393)</title></rect><rect x="162" y="128.902" width="6" height="71.0983" stroke="black" stroke-width="1" fill="blue" tooltip="enable"><title>(1.0707,369)</title></rect><rect x="168" y="131.599" width="6" height="68.4008" stroke="black" stroke-width="1" fill="blue" tooltip="enable"><title>(1.11036,355)</title></rect><rect x="174" y="139.306" width="6" height="60.6936" stroke="black" stroke-width="1" fill="blue" tooltip="enable"><title>(1.15001,315)</title></rect><rect x="180" y="137.958" width="6" height="62.0424" stroke="black" stroke-width="1" fill="blue" tooltip="enable"><title>(1.18967,322)</title></rect><rect x="186" y="143.738" width="6" height="56.262" stroke="black" stroke-width="1" fill="blue" tooltip="enable"><title>(1.22932,292)</title></rect><rect x="192" y="142.967" width="6" height="57.0328" stroke="black" stroke-width="1" fill="blue" tooltip="enable"><title>(1.26898,296)</title></rect><rect x="198" y="146.435" width="6" height="53.5645" stroke="black" stroke-width="1" fill="blue" tooltip="enable"><title>(1.30863,278)</title></rect><rect x="204" y="148.17" width="6" height="51.8304" stroke="black" stroke-width="1" fill="blue" tooltip="enable"><title>(1.34829,269)</title></rect><rect x="210" y="151.638" width="6" height="48.3622" stroke="black" stroke-width="1" fill="blue" tooltip="enable"><title>(1.38795,251)</title></rect><rect x="216" y="154.335" width="6" height="45.6647" stroke="black" stroke-width="1" fill="blue" tooltip="enable"><title>(1.4276,237)</title></rect><rect x="222" y="155.491" width="6" height="44.5087" stroke="black" stroke-width="1" fill="blue" tooltip="enable"><title>(1.46726,231)</title></rect><rect x="228" y="155.877" width="6" height="44.1233" stroke="black" stroke-width="1" fill="blue" tooltip="enable"><title>(1.50691,229)</title></rect><rect x="234" y="160.116" width="6" height="39.8844" stroke="black" stroke-width="1" fill="blue" tooltip="enable"><title>(1.54657,207)</title></rect><rect x="240" y="163.006" width="6" height="36.9942" stroke="black" stroke-width="1" fill="blue" tooltip="enable"><title>(1.58622,192)</title></rect><rect x="246" y="167.63" width="6" height="32.3699" stroke="black" stroke-width="1" fill="blue" tooltip="enable"><title>(1.62588,168)</title></rect><rect x="252" y="164.933" width="6" height="35.0674" stroke="black" stroke-width="1" fill="blue" tooltip="enable"><title>(1.66553,182)</title></rect><rect x="258" y="171.098" width="6" height="28.9017" stroke="black" stroke-width="1" fill="blue" tooltip="enable"><title>(1.70519,150)</title></rect><rect x="264" y="166.474" width="6" height="33.526" stroke="black" stroke-width="1" fill="blue" tooltip="enable"><title>(1.74485,174)</title></rect><rect x="270" y="168.979" width="6" height="31.0212" stroke="black" stroke-width="1" fill="blue" tooltip="enable"><title>(1.7845,161)</title></rect><rect x="276" y="173.988" width="6" height="26.0116" stroke="black" stroke-width="1" fill="blue" tooltip="enable"><title>(1.82416,135)</title></rect><rect x="282" y="173.025" width="6" height="26.975" stroke="black" stroke-width="1" fill="blue" tooltip="enable"><title>(1.86381,140)</title></rect><rect x="288" y="178.035" width="6" height="21.9653" stroke="black" stroke-width="1" fill="blue" tooltip="enable"><title>(1.90347,114)</title></rect><rect x="294" y="179.383" width="6" height="20.6166" stroke="black" stroke-width="1" fill="blue" tooltip="enable"><title>(1.94312,107)</title></rect><rect x="300" y="182.852" width="6" height="17.1484" stroke="black" stroke-width="1" fill="blue" tooltip="enable"><title>(1.98278,89)</title></rect><rect x="306" y="181.118" width="6" height="18.8825" stroke="black" stroke-width="1" fill="blue" tooltip="enable"><title>(2.02244,98)</title></rect><rect x="312" y="181.696" width="6" height="18.3044" stroke="black" stroke-width="1" fill="blue" tooltip="enable"><title>(2.06209,95)</title></rect><rect x="318" y="182.659" width="6" height="17.341" stroke="black" stroke-width="1" fill="blue" tooltip="enable"><title>(2.10175,90)</title></rect><rect x="324" y="185.356" width="6" height="14.6435" stroke="black" stroke-width="1" fill="blue" tooltip="enable"><title>(2.1414,76)</title></rect><rect x="330" y="185.742" width="6" height="14.2582" stroke="black" stroke-width="1" fill="blue" tooltip="enable"><title>(2.18106,74)</title></rect><rect x="336" y="187.283" width="6" height="12.7168" stroke="black" stroke-width="1" fill="blue" tooltip="enable"><title>(2.22071,66)</title></rect><rect x="342" y="187.476" width="6" height="12.5241" stroke="black" stroke-width="1" fill="blue" tooltip="enable"><title>(2.26037,65)</title></rect><rect x="348" y="188.632" width="6" height="11.368" stroke="black" stroke-width="1" fill="blue" tooltip="enable"><title>(2.30002,59)</title></rect><rect x="354" y="186.898" width="6" height="13.1021" stroke="black" stroke-width="1" fill="blue" tooltip="enable"><title>(2.33968,68)</title></rect><rect x="360" y="189.017" width="6" height="10.9827" stroke="black" stroke-width="1" fill="blue" tooltip="enable"><title>(2.37934,57)</title></rect><rect x="366" y="187.861" width="6" height="12.1387" stroke="black" stroke-width="1" fill="blue" tooltip="enable"><title>(2.41899,63)</title></rect><rect x="372" y="190.366" width="6" height="9.63391" stroke="black" stroke-width="1" fill="blue" tooltip="enable"><title>(2.45865,50)</title></rect><rect x="378" y="194.027" width="6" height="5.97302" stroke="black" stroke-width="1" fill="blue" tooltip="enable"><title>(2.4983,31)</title></rect><rect x="384" y="192.871" width="6" height="7.12909" stroke="black" stroke-width="1" fill="blue" tooltip="enable"><title>(2.53796,37)</title></rect><rect x="390" y="192.293" width="6" height="7.70713" stroke="black" stroke-width="1" fill="blue" tooltip="enable"><title>(2.57761,40)</title></rect><rect x="396" y="192.1" width="6" height="7.89981" stroke="black" stroke-width="1" fill="blue" tooltip="enable"><title>(2.61727,41)</title></rect><rect x="402" y="192.871" width="6" height="7.12909" stroke="black" stroke-width="1" fill="blue" tooltip="enable"><title>(2.65692,37)</title></rect><rect x="408" y="193.642" width="6" height="6.35838" stroke="black" stroke-width="1" fill="blue" tooltip="enable"><title>(2.69658,33)</title></rect><rect x="414" y="194.22" width="6" height="5.78035" stroke="black" stroke-width="1" fill="blue" tooltip="enable"><title>(2.73624,30)</title></rect><rect x="420" y="193.834" width="6" height="6.1657" stroke="black" stroke-width="1" fill="blue" tooltip="enable"><title>(2.77589,32)</title></rect><rect x="426" y="193.642" width="6" height="6.35838" stroke="black" stroke-width="1" fill="blue" tooltip="enable"><title>(2.81555,33)</title></rect><rect x="432" y="195.183" width="6" height="4.81696" stroke="black" stroke-width="1" fill="blue" tooltip="enable"><title>(2.8552,25)</title></rect><rect x="438" y="194.99" width="6" height="5.00963" stroke="black" stroke-width="1" fill="blue" tooltip="enable"><title>(2.89486,26)</title></rect><rect x="444" y="194.412" width="6" height="5.58767" stroke="black" stroke-width="1" fill="blue" tooltip="enable"><title>(2.93451,29)</title></rect><rect x="450" y="194.22" width="6" height="5.78035" stroke="black" stroke-width="1" fill="blue" tooltip="enable"><title>(2.97417,30)</title></rect><rect x="456" y="197.495" width="6" height="2.50482" stroke="black" stroke-width="1" fill="blue" tooltip="enable"><title>(3.01382,13)</title></rect><rect x="462" y="196.724" width="6" height="3.27553" stroke="black" stroke-width="1" fill="blue" tooltip="enable"><title>(3.05348,17)</title></rect><rect x="468" y="196.532" width="6" height="3.46821" stroke="black" stroke-width="1" fill="blue" tooltip="enable"><title>(3.09314,18)</title></rect><rect x="474" y="194.798" width="6" height="5.20231" stroke="black" stroke-width="1" fill="blue" tooltip="enable"><title>(3.13279,27)</title></rect><rect x="480" y="196.724" width="6" height="3.27553" stroke="black" stroke-width="1" fill="blue" tooltip="enable"><title>(3.17245,17)</title></rect><rect x="486" y="196.724" width="6" height="3.27553" stroke="black" stroke-width="1" fill="blue" tooltip="enable"><title>(3.2121,17)</title></rect><rect x="492" y="196.917" width="6" height="3.08285" stroke="black" stroke-width="1" fill="blue" tooltip="enable"><title>(3.25176,16)</title></rect><rect x="498" y="196.724" width="6" height="3.27553" stroke="black" stroke-width="1" fill="blue" tooltip="enable"><title>(3.29141,17)</title></rect><rect x="504" y="198.459" width="6" height="1.54143" stroke="black" stroke-width="1" fill="blue" tooltip="enable"><title>(3.33107,8)</title></rect><rect x="510" y="196.917" width="6" height="3.08285" stroke="black" stroke-width="1" fill="blue" tooltip="enable"><title>(3.37073,16)</title></rect><rect x="516" y="197.881" width="6" height="2.11946" stroke="black" stroke-width="1" fill="blue" tooltip="enable"><title>(3.41038,11)</title></rect><rect x="522" y="198.459" width="6" height="1.54143" stroke="black" stroke-width="1" fill="blue" tooltip="enable"><title>(3.45004,8)</title></rect><rect x="528" y="198.651" width="6" height="1.34875" stroke="black" stroke-width="1" fill="blue" tooltip="enable"><title>(3.48969,7)</title></rect><rect x="534" y="198.459" width="6" height="1.54143" stroke="black" stroke-width="1" fill="blue" tooltip="enable"><title>(3.52935,8)</title></rect><rect x="540" y="199.037" width="6" height="0.963391" stroke="black" stroke-width="1" fill="blue" tooltip="enable"><title>(3.569,5)</title></rect><rect x="546" y="198.844" width="6" height="1.15607" stroke="black" stroke-width="1" fill="blue" tooltip="enable"><title>(3.60866,6)</title></rect><rect x="552" y="198.844" width="6" height="1.15607" stroke="black" stroke-width="1" fill="blue" tooltip="enable"><title>(3.64831,6)</title></rect><rect x="558" y="197.495" width="6" height="2.50482" stroke="black" stroke-width="1" fill="blue" tooltip="enable"><title>(3.68797,13)</title></rect><rect x="564" y="199.037" width="6" height="0.963391" stroke="black" stroke-width="1" fill="blue" tooltip="enable"><title>(3.72763,5)</title></rect><rect x="570" y="199.229" width="6" height="0.770713" stroke="black" stroke-width="1" fill="blue" tooltip="enable"><title>(3.76728,4)</title></rect><rect x="576" y="199.422" width="6" height="0.578035" stroke="black" stroke-width="1" fill="blue" tooltip="enable"><title>(3.80694,3)</title></rect><rect x="582" y="199.807" width="6" height="0.192678" stroke="black" stroke-width="1" fill="blue" tooltip="enable"><title>(3.84659,1)</title></rect><rect x="588" y="199.807" width="6" height="0.192678" stroke="black" stroke-width="1" fill="blue" tooltip="enable"><title>(3.88625,1)</title></rect><rect x="594" y="199.807" width="6" height="0.192678" stroke="black" stroke-width="1" fill="blue" tooltip="enable"><title>(3.9259,1)</title></rect><text x="30" y="240" font-size="20" fill="black">0</text>
<text x="600" y="240" font-size="20" fill="black">3.96556</text>
<polyline points="0,220,600,220" stroke="black" stroke-width="1" fill="none"/>
<text x="720" y="20" font-size="20" fill="black">1038</text>
<text x="720" y="200" font-size="20" fill="black">0</text>
<polyline points="660,0,660,200" stroke="black" stroke-width="1" fill="none"/>
</svg>