<?xml version="1.0" standalone="yes"?>
<!-- SVG graphic -->
<svg xmlns='http://www.w3.org/2000/svg' xmlns:xlink='http://www.w3.org/1999/xlink'
 version="1.1">
<rect x="0" y="0" width="6" height="200" stroke="black" stroke-width="1" fill="blue" tooltip="enable"><title>(0,1064)</title></rect><rect x="6" y="14.8496" width="6" height="185.15" stroke="black" stroke-width="1" fill="blue" tooltip="enable"><title>(0.0396921,985)</title></rect><rect x="12" y="9.77444" width="6" height="190.226" stroke="black" stroke-width="1" fill="blue" tooltip="enable"><title>(0.0793841,1012)</title></rect><rect x="18" y="6.39098" width="6" height="193.609" stroke="black" stroke-width="1" fill="blue" tooltip="enable"><title>(0.119076,1030)</title></rect><rect x="24" y="30.8271" width="6" height="169.173" stroke="black" stroke-width="1" fill="blue" tooltip="enable"><title>(0.158768,900)</title></rect><rect x="30" y="23.3083" width="6" height="176.692" stroke="black" stroke-width="1" fill="blue" tooltip="enable"><title>(0.19846,940)</title></rect><rect x="36" y="34.2105" width="6" height="165.789" stroke="black" stroke-width="1" fill="blue" tooltip="enable"><title>(0.238152,882)</title></rect><rect x="42" y="39.4737" width="6" height="160.526" stroke="black" stroke-width="1" fill="blue" tooltip="enable"><title>(0.277844,854)</title></rect><rect x="48" y="43.0451" width="6" height="156.955" stroke="black" stroke-width="1" fill="blue" tooltip="enable"><title>(0.317536,835)</title></rect><rect x="54" y="43.2331" width="6" height="156.767" stroke="black" stroke-width="1" fill="blue" tooltip="enable"><title>(0.357229,834)</title></rect><rect x="60" y="56.203" width="6" height="143.797" stroke="black" stroke-width="1" fill="blue" tooltip="enable"><title>(0.396921,765)</title></rect><rect x="66" y="66.9173" width="6" height="133.083" stroke="black" stroke-width="1" fill="blue" tooltip="enable"><title>(0.436613,708)</title></rect><rect x="72" y="70.3008" width="6" height="129.699" stroke="black" stroke-width="1" fill="blue" tooltip="enable"><title>(0.476305,690)</title></rect><rect x="78" y="70.8647" width="6" height="129.135" stroke="black" stroke-width="1" fill="blue" tooltip="enable"><title>(0.515997,687)</title></rect><rect x="84" y="76.5038" width="6" height="123.496" stroke="black" stroke-width="1" fill="blue" tooltip="enable"><title>(0.555689,657)</title></rect><rect x="90" y="83.6466" width="6" height="116.353" stroke="black" stroke-width="1" fill="blue" tooltip="enable"><title>(0.595381,619)</title></rect><rect x="96" y="84.2105" width="6" height="115.789" stroke="black" stroke-width="1" fill="blue" tooltip="enable"><title>(0.635073,616)</title></rect><rect x="102" y="83.8346" width="6" height="116.165" stroke="black" stroke-width="1" fill="blue" tooltip="enable"><title>(0.674765,618)</title></rect><rect x="108" y="93.0451" width="6" height="106.955" stroke="black" stroke-width="1" fill="blue" tooltip="enable"><title>(0.714457,569)</title></rect><rect x="114" y="94.1729" width="6" height="105.827" stroke="black" stroke-width="1" fill="blue" tooltip="enable"><title>(0.754149,563)</title></rect><rect x="120" y="100.564" width="6" height="99.4361" stroke="black" stroke-width="1" fill="blue" tooltip="enable"><title>(0.793841,529)</title></rect><rect x="126" y="108.459" width="6" height="91.5414" stroke="black" stroke-width="1" fill="blue" tooltip="enable"><title>(0.833533,487)</title></rect><rect x="132" y="102.256" width="6" height="97.7444" stroke="black" stroke-width="1" fill="blue" tooltip="enable"><title>(0.873225,520)</title></rect><rect x="138" y="118.797" width="6" height="81.203" stroke="black" stroke-width="1" fill="blue" tooltip="enable"><title>(0.912917,432)</title></rect><rect x="144" y="121.992" width="6" height="78.0075" stroke="black" stroke-width="1" fill="blue" tooltip="enable"><title>(0.952609,415)</title></rect><rect x="150" y="121.429" width="6" height="78.5714" stroke="black" stroke-width="1" fill="blue" tooltip="enable"><title>(0.992301,418)</title></rect><rect x="156" y="125" width="6" height="75" stroke="black" stroke-width="1" fill="blue" tooltip="enable"><title>(1.03199,399)</title></rect><rect x="162" y="127.632" width="6" height="72.3684" stroke="black" stroke-width="1" fill="blue" tooltip="enable"><title>(1.07169,385)</title></rect><rect x="168" y="136.842" width="6" height="63.1579" stroke="black" stroke-width="1" fill="blue" tooltip="enable"><title>(1.11138,336)</title></rect><rect x="174" y="135.526" width="6" height="64.4737" stroke="black" stroke-width="1" fill="blue" tooltip="enable"><title>(1.15107,343)</title></rect><rect x="180" y="144.925" width="6" height="55.0752" stroke="black" stroke-width="1" fill="blue" tooltip="enable"><title>(1.19076,293)</title></rect><rect x="186" y="140.414" width="6" height="59.5865" stroke="black" stroke-width="1" fill="blue" tooltip="enable"><title>(1.23045,317)</title></rect><rect x="192" y="147.932" width="6" height="52.0677" stroke="black" stroke-width="1" fill="blue" tooltip="enable"><title>(1.27015,277)</title></rect><rect x="198" y="149.624" width="6" height="50.3759" stroke="black" stroke-width="1" fill="blue" tooltip="enable"><title>(1.30984,268)</title></rect><rect x="204" y="149.436" width="6" height="50.5639" stroke="black" stroke-width="1" fill="blue" tooltip="enable"><title>(1.34953,269)</title></rect><rect x="210" y="155.827" width="6" height="44.1729" stroke="black" stroke-width="1" fill="blue" tooltip="enable"><title>(1.38922,235)</title></rect><rect x="216" y="153.571" width="6" height="46.4286" stroke="black" stroke-width="1" fill="blue" tooltip="enable"><title>(1.42891,247)</title></rect><rect x="222" y="153.947" width="6" height="46.0526" stroke="black" stroke-width="1" fill="blue" tooltip="enable"><title>(1.46861,245)</title></rect><rect x="228" y="160.338" width="6" height="39.6617" stroke="black" stroke-width="1" fill="blue" tooltip="enable"><title>(1.5083,211)</title></rect><rect x="234" y="159.962" width="6" height="40.0376" stroke="black" stroke-width="1" fill="blue" tooltip="enable"><title>(1.54799,213)</title></rect><rect x="240" y="159.774" width="6" height="40.2256" stroke="black" stroke-width="1" fill="blue" tooltip="enable"><title>(1.58768,214)</title></rect><rect x="246" y="168.609" width="6" height="31.391" stroke="black" stroke-width="1" fill="blue" tooltip="enable"><title>(1.62737,167)</title></rect><rect x="252" y="169.173" width="6" height="30.8271" stroke="black" stroke-width="1" fill="blue" tooltip="enable"><title>(1.66707,164)</title></rect><rect x="258" y="168.609" width="6" height="31.391" stroke="black" stroke-width="1" fill="blue" tooltip="enable"><title>(1.70676,167)</title></rect><rect x="264" y="173.684" width="6" height="26.3158" stroke="black" stroke-width="1" fill="blue" tooltip="enable"><title>(1.74645,140)</title></rect><rect x="270" y="172.556" width="6" height="27.4436" stroke="black" stroke-width="1" fill="blue" tooltip="enable"><title>(1.78614,146)</title></rect><rect x="276" y="176.692" width="6" height="23.3083" stroke="black" stroke-width="1" fill="blue" tooltip="enable"><title>(1.82583,124)</title></rect><rect x="282" y="174.624" width="6" height="25.3759" stroke="black" stroke-width="1" fill="blue" tooltip="enable"><title>(1.86553,135)</title></rect><rect x="288" y="176.692" width="6" height="23.3083" stroke="black" stroke-width="1" fill="blue" tooltip="enable"><title>(1.90522,124)</title></rect><rect x="294" y="175.564" width="6" height="24.4361" stroke="black" stroke-width="1" fill="blue" tooltip="enable"><title>(1.94491,130)</title></rect><rect x="300" y="179.135" width="6" height="20.8647" stroke="black" stroke-width="1" fill="blue" tooltip="enable"><title>(1.9846,111)</title></rect><rect x="306" y="179.135" width="6" height="20.8647" stroke="black" stroke-width="1" fill="blue" tooltip="enable"><title>(2.02429,111)</title></rect><rect x="312" y="182.331" width="6" height="17.6692" stroke="black" stroke-width="1" fill="blue" tooltip="enable"><title>(2.06399,94)</title></rect><rect x="318" y="182.143" width="6" height="17.8571" stroke="black" stroke-width="1" fill="blue" tooltip="enable"><title>(2.10368,95)</title></rect><rect x="324" y="184.023" width="6" height="15.9774" stroke="black" stroke-width="1" fill="blue" tooltip="enable"><title>(2.14337,85)</title></rect><rect x="330" y="184.398" width="6" height="15.6015" stroke="black" stroke-width="1" fill="blue" tooltip="enable"><title>(2.18306,83)</title></rect><rect x="336" y="188.534" width="6" height="11.4662" stroke="black" stroke-width="1" fill="blue" tooltip="enable"><title>(2.22276,61)</title></rect><rect x="342" y="187.782" width="6" height="12.218" stroke="black" stroke-width="1" fill="blue" tooltip="enable"><title>(2.26245,65)</title></rect><rect x="348" y="185.902" width="6" height="14.0977" stroke="black" stroke-width="1" fill="blue" tooltip="enable"><title>(2.30214,75)</title></rect><rect x="354" y="190.789" width="6" height="9.21053" stroke="black" stroke-width="1" fill="blue" tooltip="enable"><title>(2.34183,49)</title></rect><rect x="360" y="192.105" width="6" height="7.89474" stroke="black" stroke-width="1" fill="blue" tooltip="enable"><title>(2.38152,42)</title></rect><rect x="366" y="188.722" width="6" height="11.2782" stroke="black" stroke-width="1" fill="blue" tooltip="enable"><title>(2.42122,60)</title></rect><rect x="372" y="188.534" width="6" height="11.4662" stroke="black" stroke-width="1" fill="blue" tooltip="enable"><title>(2.46091,61)</title></rect><rect x="378" y="190.602" width="6" height="9.3985" stroke="black" stroke-width="1" fill="blue" tooltip="enable"><title>(2.5006,50)</title></rect><rect x="384" y="190.977" width="6" height="9.02256" stroke="black" stroke-width="1" fill="blue" tooltip="enable"><title>(2.54029,48)</title></rect><rect x="390" y="193.609" width="6" height="6.39098" stroke="black" stroke-width="1" fill="blue" tooltip="enable"><title>(2.57998,34)</title></rect><rect x="396" y="190.789" width="6" height="9.21053" stroke="black" stroke-width="1" fill="blue" tooltip="enable"><title>(2.61968,49)</title></rect><rect x="402" y="193.421" width="6" height="6.57895" stroke="black" stroke-width="1" fill="blue" tooltip="enable"><title>(2.65937,35)</title></rect><rect x="408" y="192.105" width="6" height="7.89474" stroke="black" stroke-width="1" fill="blue" tooltip="enable"><title>(2.69906,42)</title></rect><rect x="414" y="192.669" width="6" height="7.33083" stroke="black" stroke-width="1" fill="blue" tooltip="enable"><title>(2.73875,39)</title></rect><rect x="420" y="195.113" width="6" height="4.88722" stroke="black" stroke-width="1" fill="blue" tooltip="enable"><title>(2.77844,26)</title></rect><rect x="426" y="193.421" width="6" height="6.57895" stroke="black" stroke-width="1" fill="blue" tooltip="enable"><title>(2.81814,35)</title></rect><rect x="432" y="195.865" width="6" height="4.13534" stroke="black" stroke-width="1" fill="blue" tooltip="enable"><title>(2.85783,22)</title></rect><rect x="438" y="195.113" width="6" height="4.88722" stroke="black" stroke-width="1" fill="blue" tooltip="enable"><title>(2.89752,26)</title></rect><rect x="444" y="194.173" width="6" height="5.82707" stroke="black" stroke-width="1" fill="blue" tooltip="enable"><title>(2.93721,31)</title></rect><rect x="450" y="194.737" width="6" height="5.26316" stroke="black" stroke-width="1" fill="blue" tooltip="enable"><title>(2.9769,28)</title></rect><rect x="456" y="196.992" width="6" height="3.00752" stroke="black" stroke-width="1" fill="blue" tooltip="enable"><title>(3.0166,16)</title></rect><rect x="462" y="195.489" width="6" height="4.51128" stroke="black" stroke-width="1" fill="blue" tooltip="enable"><title>(3.05629,24)</title></rect><rect x="468" y="196.617" width="6" height="3.38346" stroke="black" stroke-width="1" fill="blue" tooltip="enable"><title>(3.09598,18)</title></rect><rect x="474" y="196.429" width="6" height="3.57143" stroke="black" stroke-width="1" fill="blue" tooltip="enable"><title>(3.13567,19)</title></rect><rect x="480" y="197.18" width="6" height="2.81955" stroke="black" stroke-width="1" fill="blue" tooltip="enable"><title>(3.17536,15)</title></rect><rect x="486" y="197.932" width="6" height="2.06767" stroke="black" stroke-width="1" fill="blue" tooltip="enable"><title>(3.21506,11)</title></rect><rect x="492" y="197.368" width="6" height="2.63158" stroke="black" stroke-width="1" fill="blue" tooltip="enable"><title>(3.25475,14)</title></rect><rect x="498" y="198.496" width="6" height="1.50376" stroke="black" stroke-width="1" fill="blue" tooltip="enable"><title>(3.29444,8)</title></rect><rect x="504" y="196.429" width="6" height="3.57143" stroke="black" stroke-width="1" fill="blue" tooltip="enable"><title>(3.33413,19)</title></rect><rect x="510" y="198.496" width="6" height="1.50376" stroke="black" stroke-width="1" fill="blue" tooltip="enable"><title>(3.37382,8)</title></rect><rect x="516" y="197.556" width="6" height="2.44361" stroke="black" stroke-width="1" fill="blue" tooltip="enable"><title>(3.41352,13)</title></rect><rect x="522" y="197.368" width="6" height="2.63158" stroke="black" stroke-width="1" fill="blue" tooltip="enable"><title>(3.45321,14)</title></rect><rect x="528" y="198.12" width="6" height="1.8797" stroke="black" stroke-width="1" fill="blue" tooltip="enable"><title>(3.4929,10)</title></rect><rect x="534" y="199.248" width="6" height="0.75188" stroke="black" stroke-width="1" fill="blue" tooltip="enable"><title>(3.53259,4)</title></rect><rect x="540" y="197.744" width="6" height="2.25564" stroke="black" stroke-width="1" fill="blue" tooltip="enable"><title>(3.57228,12)</title></rect><rect x="546" y="198.872" width="6" height="1.12782" stroke="black" stroke-width="1" fill="blue" tooltip="enable"><title>(3.61198,6)</title></rect><rect x="552" y="198.12" width="6" height="1.8797" stroke="black" stroke-width="1" fill="blue" tooltip="enable"><title>(3.65167,10)</title></rect><rect x="558" y="198.684" width="6" height="1.31579" stroke="black" stroke-width="1" fill="blue" tooltip="enable"><title>(3.69136,7)</title></rect><rect x="564" y="199.624" width="6" height="0.37594" stroke="black" stroke-width="1" fill="blue" tooltip="enable"><title>(3.73105,2)</title></rect><rect x="570" y="199.624" width="6" height="0.37594" stroke="black" stroke-width="1" fill="blue" tooltip="enable"><title>(3.77075,2)</title></rect><rect x="576" y="200" width="6" height="0" stroke="black" stroke-width="1" fill="blue" tooltip="enable"><title>(3.81044,0)</title></rect><rect x="582" y="199.248" width="6" height="0.75188" stroke="black" stroke-width="1" fill="blue" tooltip="enable"><title>(3.85013,4)</title></rect><rect x="588" y="199.624" width="6" height="0.37594" stroke="black" stroke-width="1" fill="blue" tooltip="enable"><title>(3.88982,2)</title></rect><rect x="594" y="199.624" width="6" height="0.37594" stroke="black" stroke-width="1" fill="blue" tooltip="enable"><title>(3.92951,2)</title></rect><text x="30" y="240" font-size="20" fill="black">0</text>
<text x="600" y="240" font-size="20" fill="black">3.96921</text>
<polyline points="0,220,600,220" stroke="black" stroke-width="1" fill="none"/>
<text x="720" y="20" font-size="20" fill="black">1064</text>
<text x="720" y="200" font-size="20" fill="black">0</text>
<polyline points="660,0,660,200" stroke="black" stroke-width="1" fill="none"/>
</svg>